<svg width="224" height="36" viewBox="0 0 224 36" fill="none" xmlns="http://www.w3.org/2000/svg">
<path d="M57.9814 9.138H54.0894L53.4454 11H51.3874L54.9014 1.214H57.1834L60.6974 11H58.6254L57.9814 9.138ZM57.4494 7.57L56.0354 3.482L54.6214 7.57H57.4494ZM69.4309 3.244L64.6289 14.668H62.5429L64.2229 10.804L61.1149 3.244H63.3129L65.3149 8.662L67.3449 3.244H69.4309ZM73.9315 11.126C73.1848 11.126 72.5128 10.9627 71.9155 10.636C71.3182 10.3 70.8468 9.82867 70.5015 9.222C70.1655 8.61533 69.9975 7.91533 69.9975 7.122C69.9975 6.32867 70.1702 5.62867 70.5155 5.022C70.8702 4.41533 71.3508 3.94867 71.9575 3.622C72.5642 3.286 73.2408 3.118 73.9875 3.118C74.7342 3.118 75.4108 3.286 76.0175 3.622C76.6242 3.94867 77.1002 4.41533 77.4455 5.022C77.8002 5.62867 77.9775 6.32867 77.9775 7.122C77.9775 7.91533 77.7955 8.61533 77.4315 9.222C77.0768 9.82867 76.5915 10.3 75.9755 10.636C75.3688 10.9627 74.6875 11.126 73.9315 11.126ZM73.9315 9.418C74.2862 9.418 74.6175 9.334 74.9255 9.166C75.2428 8.98867 75.4948 8.72733 75.6815 8.382C75.8682 8.03667 75.9615 7.61667 75.9615 7.122C75.9615 6.38467 75.7655 5.82 75.3735 5.428C74.9908 5.02667 74.5195 4.826 73.9595 4.826C73.3995 4.826 72.9282 5.02667 72.5455 5.428C72.1722 5.82 71.9855 6.38467 71.9855 7.122C71.9855 7.85933 72.1675 8.42867 72.5315 8.83C72.9048 9.222 73.3715 9.418 73.9315 9.418ZM87.3432 11L84.7112 7.696V11H82.7512V0.64H84.7112V6.534L87.3152 3.244H89.8632L86.4472 7.136L89.8912 11H87.3432ZM98.1369 6.954C98.1369 7.234 98.1183 7.486 98.0809 7.71H92.4109C92.4576 8.27 92.6536 8.70867 92.9989 9.026C93.3443 9.34333 93.7689 9.502 94.2729 9.502C95.0009 9.502 95.5189 9.18933 95.8269 8.564H97.9409C97.7169 9.31067 97.2876 9.92667 96.6529 10.412C96.0183 10.888 95.2389 11.126 94.3149 11.126C93.5683 11.126 92.8963 10.9627 92.2989 10.636C91.7109 10.3 91.2489 9.82867 90.9129 9.222C90.5863 8.61533 90.4229 7.91533 90.4229 7.122C90.4229 6.31933 90.5863 5.61467 90.9129 5.008C91.2396 4.40133 91.6969 3.93467 92.2849 3.608C92.8729 3.28133 93.5496 3.118 94.3149 3.118C95.0523 3.118 95.7103 3.27667 96.2889 3.594C96.8769 3.91133 97.3296 4.364 97.6469 4.952C97.9736 5.53067 98.1369 6.198 98.1369 6.954ZM96.1069 6.394C96.0976 5.89 95.9156 5.48867 95.5609 5.19C95.2063 4.882 94.7723 4.728 94.2589 4.728C93.7736 4.728 93.3629 4.87733 93.0269 5.176C92.7003 5.46533 92.4996 5.87133 92.4249 6.394H96.1069ZM110.03 4.252C110.03 4.77467 109.904 5.26467 109.651 5.722C109.409 6.17933 109.022 6.548 108.49 6.828C107.967 7.108 107.304 7.248 106.502 7.248H104.864V11H102.904V1.228H106.502C107.258 1.228 107.902 1.35867 108.434 1.62C108.966 1.88133 109.362 2.24067 109.624 2.698C109.894 3.15533 110.03 3.67333 110.03 4.252ZM106.418 5.666C106.959 5.666 107.36 5.54467 107.622 5.302C107.883 5.05 108.014 4.7 108.014 4.252C108.014 3.3 107.482 2.824 106.418 2.824H104.864V5.666H106.418ZM114.865 11.126C114.118 11.126 113.446 10.9627 112.849 10.636C112.252 10.3 111.78 9.82867 111.435 9.222C111.099 8.61533 110.931 7.91533 110.931 7.122C110.931 6.32867 111.104 5.62867 111.449 5.022C111.804 4.41533 112.284 3.94867 112.891 3.622C113.498 3.286 114.174 3.118 114.921 3.118C115.668 3.118 116.344 3.286 116.951 3.622C117.558 3.94867 118.034 4.41533 118.379 5.022C118.734 5.62867 118.911 6.32867 118.911 7.122C118.911 7.91533 118.729 8.61533 118.365 9.222C118.01 9.82867 117.525 10.3 116.909 10.636C116.302 10.9627 115.621 11.126 114.865 11.126ZM114.865 9.418C115.22 9.418 115.551 9.334 115.859 9.166C116.176 8.98867 116.428 8.72733 116.615 8.382C116.802 8.03667 116.895 7.61667 116.895 7.122C116.895 6.38467 116.699 5.82 116.307 5.428C115.924 5.02667 115.453 4.826 114.893 4.826C114.333 4.826 113.862 5.02667 113.479 5.428C113.106 5.82 112.919 6.38467 112.919 7.122C112.919 7.85933 113.101 8.42867 113.465 8.83C113.838 9.222 114.305 9.418 114.865 9.418ZM123.317 11.126C122.682 11.126 122.113 11.014 121.609 10.79C121.105 10.5567 120.703 10.244 120.405 9.852C120.115 9.46 119.957 9.026 119.929 8.55H121.903C121.94 8.84867 122.085 9.096 122.337 9.292C122.598 9.488 122.92 9.586 123.303 9.586C123.676 9.586 123.965 9.51133 124.171 9.362C124.385 9.21267 124.493 9.02133 124.493 8.788C124.493 8.536 124.362 8.34933 124.101 8.228C123.849 8.09733 123.443 7.95733 122.883 7.808C122.304 7.668 121.828 7.52333 121.455 7.374C121.091 7.22467 120.773 6.996 120.503 6.688C120.241 6.38 120.111 5.96467 120.111 5.442C120.111 5.01267 120.232 4.62067 120.475 4.266C120.727 3.91133 121.081 3.63133 121.539 3.426C122.005 3.22067 122.551 3.118 123.177 3.118C124.101 3.118 124.838 3.35133 125.389 3.818C125.939 4.27533 126.243 4.896 126.299 5.68H124.423C124.395 5.372 124.264 5.12933 124.031 4.952C123.807 4.76533 123.503 4.672 123.121 4.672C122.766 4.672 122.491 4.73733 122.295 4.868C122.108 4.99867 122.015 5.18067 122.015 5.414C122.015 5.67533 122.145 5.876 122.407 6.016C122.668 6.14667 123.074 6.282 123.625 6.422C124.185 6.562 124.647 6.70667 125.011 6.856C125.375 7.00533 125.687 7.23867 125.949 7.556C126.219 7.864 126.359 8.27467 126.369 8.788C126.369 9.236 126.243 9.63733 125.991 9.992C125.748 10.3467 125.393 10.6267 124.927 10.832C124.469 11.028 123.933 11.126 123.317 11.126ZM135.398 3.244L130.596 14.668H128.51L130.19 10.804L127.082 3.244H129.28L131.282 8.662L133.312 3.244H135.398ZM135.95 7.094C135.95 6.31 136.104 5.61467 136.412 5.008C136.73 4.40133 137.154 3.93467 137.686 3.608C138.228 3.28133 138.83 3.118 139.492 3.118C140.071 3.118 140.575 3.23467 141.004 3.468C141.443 3.70133 141.793 3.99533 142.054 4.35V3.244H144.028V11H142.054V9.866C141.802 10.23 141.452 10.5333 141.004 10.776C140.566 11.0093 140.057 11.126 139.478 11.126C138.825 11.126 138.228 10.958 137.686 10.622C137.154 10.286 136.73 9.81467 136.412 9.208C136.104 8.592 135.95 7.88733 135.95 7.094ZM142.054 7.122C142.054 6.646 141.961 6.24 141.774 5.904C141.588 5.55867 141.336 5.29733 141.018 5.12C140.701 4.93333 140.36 4.84 139.996 4.84C139.632 4.84 139.296 4.92867 138.988 5.106C138.68 5.28333 138.428 5.54467 138.232 5.89C138.046 6.226 137.952 6.62733 137.952 7.094C137.952 7.56067 138.046 7.97133 138.232 8.326C138.428 8.67133 138.68 8.93733 138.988 9.124C139.306 9.31067 139.642 9.404 139.996 9.404C140.36 9.404 140.701 9.31533 141.018 9.138C141.336 8.95133 141.588 8.69 141.774 8.354C141.961 8.00867 142.054 7.598 142.054 7.122ZM150.241 3.132C151.165 3.132 151.911 3.426 152.481 4.014C153.05 4.59267 153.335 5.40467 153.335 6.45V11H151.375V6.716C151.375 6.1 151.221 5.62867 150.913 5.302C150.605 4.966 150.185 4.798 149.653 4.798C149.111 4.798 148.682 4.966 148.365 5.302C148.057 5.62867 147.903 6.1 147.903 6.716V11H145.943V3.244H147.903V4.21C148.164 3.874 148.495 3.61267 148.897 3.426C149.307 3.23 149.755 3.132 150.241 3.132ZM154.694 7.094C154.694 6.31 154.848 5.61467 155.156 5.008C155.474 4.40133 155.903 3.93467 156.444 3.608C156.986 3.28133 157.588 3.118 158.25 3.118C158.754 3.118 159.235 3.23 159.692 3.454C160.15 3.66867 160.514 3.958 160.784 4.322V0.64H162.772V11H160.784V9.852C160.542 10.2347 160.201 10.5427 159.762 10.776C159.324 11.0093 158.815 11.126 158.236 11.126C157.583 11.126 156.986 10.958 156.444 10.622C155.903 10.286 155.474 9.81467 155.156 9.208C154.848 8.592 154.694 7.88733 154.694 7.094ZM160.798 7.122C160.798 6.646 160.705 6.24 160.518 5.904C160.332 5.55867 160.08 5.29733 159.762 5.12C159.445 4.93333 159.104 4.84 158.74 4.84C158.376 4.84 158.04 4.92867 157.732 5.106C157.424 5.28333 157.172 5.54467 156.976 5.89C156.79 6.226 156.696 6.62733 156.696 7.094C156.696 7.56067 156.79 7.97133 156.976 8.326C157.172 8.67133 157.424 8.93733 157.732 9.124C158.05 9.31067 158.386 9.404 158.74 9.404C159.104 9.404 159.445 9.31533 159.762 9.138C160.08 8.95133 160.332 8.69 160.518 8.354C160.705 8.00867 160.798 7.598 160.798 7.122ZM172.009 3.244V11H170.035V10.02C169.783 10.356 169.451 10.622 169.041 10.818C168.639 11.0047 168.201 11.098 167.725 11.098C167.118 11.098 166.581 10.972 166.115 10.72C165.648 10.4587 165.279 10.0807 165.009 9.586C164.747 9.082 164.617 8.48467 164.617 7.794V3.244H166.577V7.514C166.577 8.13 166.731 8.606 167.039 8.942C167.347 9.26867 167.767 9.432 168.299 9.432C168.84 9.432 169.265 9.26867 169.573 8.942C169.881 8.606 170.035 8.13 170.035 7.514V3.244H172.009ZM7.69552 25.252C7.69552 25.7747 7.56952 26.2647 7.31752 26.722C7.07485 27.1793 6.68752 27.548 6.15552 27.828C5.63285 28.108 4.97018 28.248 4.16752 28.248H2.52952V32H0.569516V22.228H4.16752C4.92352 22.228 5.56752 22.3587 6.09952 22.62C6.63152 22.8813 7.02818 23.2407 7.28952 23.698C7.56018 24.1553 7.69552 24.6733 7.69552 25.252ZM4.08352 26.666C4.62485 26.666 5.02618 26.5447 5.28752 26.302C5.54885 26.05 5.67952 25.7 5.67952 25.252C5.67952 24.3 5.14752 23.824 4.08352 23.824H2.52952V26.666H4.08352ZM12.5311 32.126C11.7844 32.126 11.1124 31.9627 10.5151 31.636C9.91776 31.3 9.44643 30.8287 9.10109 30.222C8.76509 29.6153 8.59709 28.9153 8.59709 28.122C8.59709 27.3287 8.76976 26.6287 9.11509 26.022C9.46976 25.4153 9.95043 24.9487 10.5571 24.622C11.1638 24.286 11.8404 24.118 12.5871 24.118C13.3338 24.118 14.0104 24.286 14.6171 24.622C15.2238 24.9487 15.6998 25.4153 16.0451 26.022C16.3998 26.6287 16.5771 27.3287 16.5771 28.122C16.5771 28.9153 16.3951 29.6153 16.0311 30.222C15.6764 30.8287 15.1911 31.3 14.5751 31.636C13.9684 31.9627 13.2871 32.126 12.5311 32.126ZM12.5311 30.418C12.8858 30.418 13.2171 30.334 13.5251 30.166C13.8424 29.9887 14.0944 29.7273 14.2811 29.382C14.4678 29.0367 14.5611 28.6167 14.5611 28.122C14.5611 27.3847 14.3651 26.82 13.9731 26.428C13.5904 26.0267 13.1191 25.826 12.5591 25.826C11.9991 25.826 11.5278 26.0267 11.1451 26.428C10.7718 26.82 10.5851 27.3847 10.5851 28.122C10.5851 28.8593 10.7671 29.4287 11.1311 29.83C11.5044 30.222 11.9711 30.418 12.5311 30.418ZM20.9828 32.126C20.3482 32.126 19.7788 32.014 19.2748 31.79C18.7708 31.5567 18.3695 31.244 18.0708 30.852C17.7815 30.46 17.6228 30.026 17.5948 29.55H19.5688C19.6062 29.8487 19.7508 30.096 20.0028 30.292C20.2642 30.488 20.5862 30.586 20.9688 30.586C21.3422 30.586 21.6315 30.5113 21.8368 30.362C22.0515 30.2127 22.1588 30.0213 22.1588 29.788C22.1588 29.536 22.0282 29.3493 21.7668 29.228C21.5148 29.0973 21.1088 28.9573 20.5488 28.808C19.9702 28.668 19.4942 28.5233 19.1208 28.374C18.7568 28.2247 18.4395 27.996 18.1688 27.688C17.9075 27.38 17.7768 26.9647 17.7768 26.442C17.7768 26.0127 17.8982 25.6207 18.1408 25.266C18.3928 24.9113 18.7475 24.6313 19.2048 24.426C19.6715 24.2207 20.2175 24.118 20.8428 24.118C21.7668 24.118 22.5042 24.3513 23.0548 24.818C23.6055 25.2753 23.9088 25.896 23.9648 26.68H22.0888C22.0608 26.372 21.9302 26.1293 21.6968 25.952C21.4728 25.7653 21.1695 25.672 20.7868 25.672C20.4322 25.672 20.1568 25.7373 19.9608 25.868C19.7742 25.9987 19.6808 26.1807 19.6808 26.414C19.6808 26.6753 19.8115 26.876 20.0728 27.016C20.3342 27.1467 20.7402 27.282 21.2908 27.422C21.8508 27.562 22.3128 27.7067 22.6768 27.856C23.0408 28.0053 23.3535 28.2387 23.6148 28.556C23.8855 28.864 24.0255 29.2747 24.0348 29.788C24.0348 30.236 23.9088 30.6373 23.6568 30.992C23.4142 31.3467 23.0595 31.6267 22.5928 31.832C22.1355 32.028 21.5988 32.126 20.9828 32.126ZM33.0637 24.244L28.2617 35.668H26.1757L27.8557 31.804L24.7477 24.244H26.9457L28.9477 29.662L30.9777 24.244H33.0637ZM33.6163 28.094C33.6163 27.31 33.7703 26.6147 34.0783 26.008C34.3956 25.4013 34.8203 24.9347 35.3523 24.608C35.8936 24.2813 36.4956 24.118 37.1583 24.118C37.737 24.118 38.241 24.2347 38.6703 24.468C39.109 24.7013 39.459 24.9953 39.7203 25.35V24.244H41.6943V32H39.7203V30.866C39.4683 31.23 39.1183 31.5333 38.6703 31.776C38.2316 32.0093 37.723 32.126 37.1443 32.126C36.491 32.126 35.8936 31.958 35.3523 31.622C34.8203 31.286 34.3956 30.8147 34.0783 30.208C33.7703 29.592 33.6163 28.8873 33.6163 28.094ZM39.7203 28.122C39.7203 27.646 39.627 27.24 39.4403 26.904C39.2536 26.5587 39.0016 26.2973 38.6843 26.12C38.367 25.9333 38.0263 25.84 37.6623 25.84C37.2983 25.84 36.9623 25.9287 36.6543 26.106C36.3463 26.2833 36.0943 26.5447 35.8983 26.89C35.7116 27.226 35.6183 27.6273 35.6183 28.094C35.6183 28.5607 35.7116 28.9713 35.8983 29.326C36.0943 29.6713 36.3463 29.9373 36.6543 30.124C36.9716 30.3107 37.3076 30.404 37.6623 30.404C38.0263 30.404 38.367 30.3153 38.6843 30.138C39.0016 29.9513 39.2536 29.69 39.4403 29.354C39.627 29.0087 39.7203 28.598 39.7203 28.122ZM47.9066 24.132C48.8306 24.132 49.5772 24.426 50.1466 25.014C50.7159 25.5927 51.0006 26.4047 51.0006 27.45V32H49.0406V27.716C49.0406 27.1 48.8866 26.6287 48.5786 26.302C48.2706 25.966 47.8506 25.798 47.3186 25.798C46.7772 25.798 46.3479 25.966 46.0306 26.302C45.7226 26.6287 45.5686 27.1 45.5686 27.716V32H43.6086V24.244H45.5686V25.21C45.8299 24.874 46.1612 24.6127 46.5626 24.426C46.9732 24.23 47.4212 24.132 47.9066 24.132ZM52.3604 28.094C52.3604 27.31 52.5144 26.6147 52.8224 26.008C53.1398 25.4013 53.5691 24.9347 54.1104 24.608C54.6518 24.2813 55.2538 24.118 55.9164 24.118C56.4204 24.118 56.9011 24.23 57.3584 24.454C57.8158 24.6687 58.1798 24.958 58.4504 25.322V21.64H60.4384V32H58.4504V30.852C58.2078 31.2347 57.8671 31.5427 57.4284 31.776C56.9898 32.0093 56.4811 32.126 55.9024 32.126C55.2491 32.126 54.6518 31.958 54.1104 31.622C53.5691 31.286 53.1398 30.8147 52.8224 30.208C52.5144 29.592 52.3604 28.8873 52.3604 28.094ZM58.4644 28.122C58.4644 27.646 58.3711 27.24 58.1844 26.904C57.9978 26.5587 57.7458 26.2973 57.4284 26.12C57.1111 25.9333 56.7704 25.84 56.4064 25.84C56.0424 25.84 55.7064 25.9287 55.3984 26.106C55.0904 26.2833 54.8384 26.5447 54.6424 26.89C54.4558 27.226 54.3624 27.6273 54.3624 28.094C54.3624 28.5607 54.4558 28.9713 54.6424 29.326C54.8384 29.6713 55.0904 29.9373 55.3984 30.124C55.7158 30.3107 56.0518 30.404 56.4064 30.404C56.7704 30.404 57.1111 30.3153 57.4284 30.138C57.7458 29.9513 57.9978 29.69 58.1844 29.354C58.3711 29.0087 58.4644 28.598 58.4644 28.122ZM69.6747 24.244V32H67.7007V31.02C67.4487 31.356 67.1174 31.622 66.7067 31.818C66.3054 32.0047 65.8667 32.098 65.3907 32.098C64.7841 32.098 64.2474 31.972 63.7807 31.72C63.3141 31.4587 62.9454 31.0807 62.6747 30.586C62.4134 30.082 62.2827 29.4847 62.2827 28.794V24.244H64.2427V28.514C64.2427 29.13 64.3967 29.606 64.7047 29.942C65.0127 30.2687 65.4327 30.432 65.9647 30.432C66.5061 30.432 66.9307 30.2687 67.2387 29.942C67.5467 29.606 67.7007 29.13 67.7007 28.514V24.244H69.6747ZM78.3185 32.098C77.6372 32.098 77.0212 31.9813 76.4705 31.748C75.9292 31.5147 75.4998 31.1787 75.1825 30.74C74.8652 30.3013 74.7018 29.7833 74.6925 29.186H76.7925C76.8205 29.5873 76.9605 29.9047 77.2125 30.138C77.4738 30.3713 77.8285 30.488 78.2765 30.488C78.7338 30.488 79.0932 30.3807 79.3545 30.166C79.6158 29.942 79.7465 29.6527 79.7465 29.298C79.7465 29.0087 79.6578 28.7707 79.4805 28.584C79.3032 28.3973 79.0792 28.2527 78.8085 28.15C78.5472 28.038 78.1832 27.9167 77.7165 27.786C77.0818 27.5993 76.5638 27.4173 76.1625 27.24C75.7705 27.0533 75.4298 26.778 75.1405 26.414C74.8605 26.0407 74.7205 25.546 74.7205 24.93C74.7205 24.3513 74.8652 23.8473 75.1545 23.418C75.4438 22.9887 75.8498 22.662 76.3725 22.438C76.8952 22.2047 77.4925 22.088 78.1645 22.088C79.1725 22.088 79.9892 22.3353 80.6145 22.83C81.2492 23.3153 81.5992 23.9967 81.6645 24.874H79.5085C79.4898 24.538 79.3452 24.2627 79.0745 24.048C78.8132 23.824 78.4632 23.712 78.0245 23.712C77.6418 23.712 77.3338 23.81 77.1005 24.006C76.8765 24.202 76.7645 24.4867 76.7645 24.86C76.7645 25.1213 76.8485 25.3407 77.0165 25.518C77.1938 25.686 77.4085 25.826 77.6605 25.938C77.9218 26.0407 78.2858 26.162 78.7525 26.302C79.3872 26.4887 79.9052 26.6753 80.3065 26.862C80.7078 27.0487 81.0532 27.3287 81.3425 27.702C81.6318 28.0753 81.7765 28.5653 81.7765 29.172C81.7765 29.6947 81.6412 30.18 81.3705 30.628C81.0998 31.076 80.7032 31.4353 80.1805 31.706C79.6578 31.9673 79.0372 32.098 78.3185 32.098ZM82.9718 28.094C82.9718 27.31 83.1258 26.6147 83.4338 26.008C83.7511 25.4013 84.1758 24.9347 84.7078 24.608C85.2491 24.2813 85.8511 24.118 86.5138 24.118C87.0924 24.118 87.5964 24.2347 88.0258 24.468C88.4644 24.7013 88.8144 24.9953 89.0758 25.35V24.244H91.0498V32H89.0758V30.866C88.8238 31.23 88.4738 31.5333 88.0258 31.776C87.5871 32.0093 87.0784 32.126 86.4998 32.126C85.8464 32.126 85.2491 31.958 84.7078 31.622C84.1758 31.286 83.7511 30.8147 83.4338 30.208C83.1258 29.592 82.9718 28.8873 82.9718 28.094ZM89.0758 28.122C89.0758 27.646 88.9824 27.24 88.7958 26.904C88.6091 26.5587 88.3571 26.2973 88.0398 26.12C87.7224 25.9333 87.3818 25.84 87.0178 25.84C86.6538 25.84 86.3178 25.9287 86.0098 26.106C85.7018 26.2833 85.4498 26.5447 85.2538 26.89C85.0671 27.226 84.9738 27.6273 84.9738 28.094C84.9738 28.5607 85.0671 28.9713 85.2538 29.326C85.4498 29.6713 85.7018 29.9373 86.0098 30.124C86.3271 30.3107 86.6631 30.404 87.0178 30.404C87.3818 30.404 87.7224 30.3153 88.0398 30.138C88.3571 29.9513 88.6091 29.69 88.7958 29.354C88.9824 29.0087 89.0758 28.598 89.0758 28.122ZM97.332 24.132C97.92 24.132 98.4427 24.2627 98.9 24.524C99.3574 24.776 99.712 25.154 99.964 25.658C100.225 26.1527 100.356 26.75 100.356 27.45V32H98.396V27.716C98.396 27.1 98.242 26.6287 97.934 26.302C97.626 25.966 97.206 25.798 96.674 25.798C96.1327 25.798 95.7034 25.966 95.386 26.302C95.078 26.6287 94.924 27.1 94.924 27.716V32H92.964V21.64H94.924V25.21C95.176 24.874 95.512 24.6127 95.932 24.426C96.352 24.23 96.8187 24.132 97.332 24.132ZM101.716 28.094C101.716 27.31 101.87 26.6147 102.178 26.008C102.495 25.4013 102.92 24.9347 103.452 24.608C103.993 24.2813 104.595 24.118 105.258 24.118C105.837 24.118 106.341 24.2347 106.77 24.468C107.209 24.7013 107.559 24.9953 107.82 25.35V24.244H109.794V32H107.82V30.866C107.568 31.23 107.218 31.5333 106.77 31.776C106.331 32.0093 105.823 32.126 105.244 32.126C104.591 32.126 103.993 31.958 103.452 31.622C102.92 31.286 102.495 30.8147 102.178 30.208C101.87 29.592 101.716 28.8873 101.716 28.094ZM107.82 28.122C107.82 27.646 107.727 27.24 107.54 26.904C107.353 26.5587 107.101 26.2973 106.784 26.12C106.467 25.9333 106.126 25.84 105.762 25.84C105.398 25.84 105.062 25.9287 104.754 26.106C104.446 26.2833 104.194 26.5447 103.998 26.89C103.811 27.226 103.718 27.6273 103.718 28.094C103.718 28.5607 103.811 28.9713 103.998 29.326C104.194 29.6713 104.446 29.9373 104.754 30.124C105.071 30.3107 105.407 30.404 105.762 30.404C106.126 30.404 106.467 30.3153 106.784 30.138C107.101 29.9513 107.353 29.69 107.54 29.354C107.727 29.0087 107.82 28.598 107.82 28.122ZM113.668 25.378C113.92 25.0047 114.266 24.7013 114.704 24.468C115.152 24.2347 115.661 24.118 116.23 24.118C116.893 24.118 117.49 24.2813 118.022 24.608C118.564 24.9347 118.988 25.4013 119.296 26.008C119.614 26.6053 119.772 27.3007 119.772 28.094C119.772 28.8873 119.614 29.592 119.296 30.208C118.988 30.8147 118.564 31.286 118.022 31.622C117.49 31.958 116.893 32.126 116.23 32.126C115.652 32.126 115.143 32.014 114.704 31.79C114.275 31.5567 113.93 31.258 113.668 30.894V32H111.708V21.64H113.668V25.378ZM117.77 28.094C117.77 27.6273 117.672 27.226 117.476 26.89C117.29 26.5447 117.038 26.2833 116.72 26.106C116.412 25.9287 116.076 25.84 115.712 25.84C115.358 25.84 115.022 25.9333 114.704 26.12C114.396 26.2973 114.144 26.5587 113.948 26.904C113.762 27.2493 113.668 27.6553 113.668 28.122C113.668 28.5887 113.762 28.9947 113.948 29.34C114.144 29.6853 114.396 29.9513 114.704 30.138C115.022 30.3153 115.358 30.404 115.712 30.404C116.076 30.404 116.412 30.3107 116.72 30.124C117.038 29.9373 117.29 29.6713 117.476 29.326C117.672 28.9807 117.77 28.57 117.77 28.094ZM120.692 28.094C120.692 27.31 120.846 26.6147 121.154 26.008C121.472 25.4013 121.896 24.9347 122.428 24.608C122.97 24.2813 123.572 24.118 124.234 24.118C124.813 24.118 125.317 24.2347 125.746 24.468C126.185 24.7013 126.535 24.9953 126.796 25.35V24.244H128.77V32H126.796V30.866C126.544 31.23 126.194 31.5333 125.746 31.776C125.308 32.0093 124.799 32.126 124.22 32.126C123.567 32.126 122.97 31.958 122.428 31.622C121.896 31.286 121.472 30.8147 121.154 30.208C120.846 29.592 120.692 28.8873 120.692 28.094ZM126.796 28.122C126.796 27.646 126.703 27.24 126.516 26.904C126.33 26.5587 126.078 26.2973 125.76 26.12C125.443 25.9333 125.102 25.84 124.738 25.84C124.374 25.84 124.038 25.9287 123.73 26.106C123.422 26.2833 123.17 26.5447 122.974 26.89C122.788 27.226 122.694 27.6273 122.694 28.094C122.694 28.5607 122.788 28.9713 122.974 29.326C123.17 29.6713 123.422 29.9373 123.73 30.124C124.048 30.3107 124.384 30.404 124.738 30.404C125.102 30.404 125.443 30.3153 125.76 30.138C126.078 29.9513 126.33 29.69 126.516 29.354C126.703 29.0087 126.796 28.598 126.796 28.122ZM132.967 25.854V29.606C132.967 29.8673 133.027 30.0587 133.149 30.18C133.279 30.292 133.494 30.348 133.793 30.348H134.703V32H133.471C131.819 32 130.993 31.1973 130.993 29.592V25.854H130.069V24.244H130.993V22.326H132.967V24.244H134.703V25.854H132.967ZM150.102 22.228V32H148.142V25.644L145.524 32H144.04L141.408 25.644V32H139.448V22.228H141.674L144.782 29.494L147.89 22.228H150.102ZM151.536 28.094C151.536 27.31 151.69 26.6147 151.998 26.008C152.316 25.4013 152.74 24.9347 153.272 24.608C153.814 24.2813 154.416 24.118 155.078 24.118C155.657 24.118 156.161 24.2347 156.59 24.468C157.029 24.7013 157.379 24.9953 157.64 25.35V24.244H159.614V32H157.64V30.866C157.388 31.23 157.038 31.5333 156.59 31.776C156.152 32.0093 155.643 32.126 155.064 32.126C154.411 32.126 153.814 31.958 153.272 31.622C152.74 31.286 152.316 30.8147 151.998 30.208C151.69 29.592 151.536 28.8873 151.536 28.094ZM157.64 28.122C157.64 27.646 157.547 27.24 157.36 26.904C157.174 26.5587 156.922 26.2973 156.604 26.12C156.287 25.9333 155.946 25.84 155.582 25.84C155.218 25.84 154.882 25.9287 154.574 26.106C154.266 26.2833 154.014 26.5447 153.818 26.89C153.632 27.226 153.538 27.6273 153.538 28.094C153.538 28.5607 153.632 28.9713 153.818 29.326C154.014 29.6713 154.266 29.9373 154.574 30.124C154.892 30.3107 155.228 30.404 155.582 30.404C155.946 30.404 156.287 30.3153 156.604 30.138C156.922 29.9513 157.174 29.69 157.36 29.354C157.547 29.0087 157.64 28.598 157.64 28.122ZM164.497 32.126C163.862 32.126 163.293 32.014 162.789 31.79C162.285 31.5567 161.883 31.244 161.585 30.852C161.295 30.46 161.137 30.026 161.109 29.55H163.083C163.12 29.8487 163.265 30.096 163.517 30.292C163.778 30.488 164.1 30.586 164.483 30.586C164.856 30.586 165.145 30.5113 165.351 30.362C165.565 30.2127 165.673 30.0213 165.673 29.788C165.673 29.536 165.542 29.3493 165.281 29.228C165.029 29.0973 164.623 28.9573 164.062 28.808C163.484 28.668 163.008 28.5233 162.635 28.374C162.271 28.2247 161.953 27.996 161.683 27.688C161.421 27.38 161.291 26.9647 161.291 26.442C161.291 26.0127 161.412 25.6207 161.655 25.266C161.907 24.9113 162.261 24.6313 162.719 24.426C163.185 24.2207 163.731 24.118 164.357 24.118C165.281 24.118 166.018 24.3513 166.569 24.818C167.119 25.2753 167.423 25.896 167.479 26.68H165.603C165.575 26.372 165.444 26.1293 165.211 25.952C164.987 25.7653 164.683 25.672 164.301 25.672C163.946 25.672 163.671 25.7373 163.475 25.868C163.288 25.9987 163.195 26.1807 163.195 26.414C163.195 26.6753 163.325 26.876 163.587 27.016C163.848 27.1467 164.254 27.282 164.805 27.422C165.365 27.562 165.827 27.7067 166.191 27.856C166.555 28.0053 166.867 28.2387 167.129 28.556C167.399 28.864 167.539 29.2747 167.549 29.788C167.549 30.236 167.423 30.6373 167.171 30.992C166.928 31.3467 166.573 31.6267 166.107 31.832C165.649 32.028 165.113 32.126 164.497 32.126ZM176.577 24.244L171.775 35.668H169.689L171.369 31.804L168.261 24.244H170.459L172.461 29.662L174.491 24.244H176.577ZM177.13 28.094C177.13 27.31 177.284 26.6147 177.592 26.008C177.909 25.4013 178.334 24.9347 178.866 24.608C179.407 24.2813 180.009 24.118 180.672 24.118C181.251 24.118 181.755 24.2347 182.184 24.468C182.623 24.7013 182.973 24.9953 183.234 25.35V24.244H185.208V32H183.234V30.866C182.982 31.23 182.632 31.5333 182.184 31.776C181.745 32.0093 181.237 32.126 180.658 32.126C180.005 32.126 179.407 31.958 178.866 31.622C178.334 31.286 177.909 30.8147 177.592 30.208C177.284 29.592 177.13 28.8873 177.13 28.094ZM183.234 28.122C183.234 27.646 183.141 27.24 182.954 26.904C182.767 26.5587 182.515 26.2973 182.198 26.12C181.881 25.9333 181.54 25.84 181.176 25.84C180.812 25.84 180.476 25.9287 180.168 26.106C179.86 26.2833 179.608 26.5447 179.412 26.89C179.225 27.226 179.132 27.6273 179.132 28.094C179.132 28.5607 179.225 28.9713 179.412 29.326C179.608 29.6713 179.86 29.9373 180.168 30.124C180.485 30.3107 180.821 30.404 181.176 30.404C181.54 30.404 181.881 30.3153 182.198 30.138C182.515 29.9513 182.767 29.69 182.954 29.354C183.141 29.0087 183.234 28.598 183.234 28.122ZM189.082 25.448C189.334 25.0373 189.661 24.7153 190.062 24.482C190.473 24.2487 190.94 24.132 191.462 24.132V26.19H190.944C190.328 26.19 189.862 26.3347 189.544 26.624C189.236 26.9133 189.082 27.4173 189.082 28.136V32H187.122V24.244H189.082V25.448ZM192.278 28.094C192.278 27.31 192.432 26.6147 192.74 26.008C193.058 25.4013 193.482 24.9347 194.014 24.608C194.556 24.2813 195.158 24.118 195.82 24.118C196.399 24.118 196.903 24.2347 197.332 24.468C197.771 24.7013 198.121 24.9953 198.382 25.35V24.244H200.356V32H198.382V30.866C198.13 31.23 197.78 31.5333 197.332 31.776C196.894 32.0093 196.385 32.126 195.806 32.126C195.153 32.126 194.556 31.958 194.014 31.622C193.482 31.286 193.058 30.8147 192.74 30.208C192.432 29.592 192.278 28.8873 192.278 28.094ZM198.382 28.122C198.382 27.646 198.289 27.24 198.102 26.904C197.916 26.5587 197.664 26.2973 197.346 26.12C197.029 25.9333 196.688 25.84 196.324 25.84C195.96 25.84 195.624 25.9287 195.316 26.106C195.008 26.2833 194.756 26.5447 194.56 26.89C194.374 27.226 194.28 27.6273 194.28 28.094C194.28 28.5607 194.374 28.9713 194.56 29.326C194.756 29.6713 195.008 29.9373 195.316 30.124C195.634 30.3107 195.97 30.404 196.324 30.404C196.688 30.404 197.029 30.3153 197.346 30.138C197.664 29.9513 197.916 29.69 198.102 29.354C198.289 29.0087 198.382 28.598 198.382 28.122ZM206.863 32L204.231 28.696V32H202.271V21.64H204.231V27.534L206.835 24.244H209.383L205.967 28.136L209.411 32H206.863ZM209.942 28.094C209.942 27.31 210.096 26.6147 210.404 26.008C210.722 25.4013 211.146 24.9347 211.678 24.608C212.22 24.2813 212.822 24.118 213.484 24.118C214.063 24.118 214.567 24.2347 214.996 24.468C215.435 24.7013 215.785 24.9953 216.046 25.35V24.244H218.02V32H216.046V30.866C215.794 31.23 215.444 31.5333 214.996 31.776C214.558 32.0093 214.049 32.126 213.47 32.126C212.817 32.126 212.22 31.958 211.678 31.622C211.146 31.286 210.722 30.8147 210.404 30.208C210.096 29.592 209.942 28.8873 209.942 28.094ZM216.046 28.122C216.046 27.646 215.953 27.24 215.766 26.904C215.58 26.5587 215.328 26.2973 215.01 26.12C214.693 25.9333 214.352 25.84 213.988 25.84C213.624 25.84 213.288 25.9287 212.98 26.106C212.672 26.2833 212.42 26.5447 212.224 26.89C212.038 27.226 211.944 27.6273 211.944 28.094C211.944 28.5607 212.038 28.9713 212.224 29.326C212.42 29.6713 212.672 29.9373 212.98 30.124C213.298 30.3107 213.634 30.404 213.988 30.404C214.352 30.404 214.693 30.3153 215.01 30.138C215.328 29.9513 215.58 29.69 215.766 29.354C215.953 29.0087 216.046 28.598 216.046 28.122ZM222.217 25.854V29.606C222.217 29.8673 222.277 30.0587 222.399 30.18C222.529 30.292 222.744 30.348 223.043 30.348H223.953V32H222.721C221.069 32 220.243 31.1973 220.243 29.592V25.854H219.319V24.244H220.243V22.326H222.217V24.244H223.953V25.854H222.217Z" fill="#FF92A4"/>
</svg>
