<svg width="241" height="44" viewBox="0 0 241 44" fill="none" xmlns="http://www.w3.org/2000/svg">
<path d="M8.36035 4.07324C8.36035 4.62988 8.25049 5.1499 8.03076 5.6333C7.82568 6.1167 7.54004 6.5415 7.17383 6.90771C6.80762 7.25928 6.37549 7.54492 5.87744 7.76465C5.39404 7.96973 4.87402 8.07227 4.31738 8.07227C3.76074 8.07227 3.2334 7.96973 2.73535 7.76465C2.25195 7.54492 1.82715 7.25928 1.46094 6.90771C1.10938 6.5415 0.82373 6.1167 0.604004 5.6333C0.398926 5.1499 0.296387 4.62988 0.296387 4.07324C0.296387 3.53125 0.398926 3.01855 0.604004 2.53516C0.82373 2.03711 1.10938 1.6123 1.46094 1.26074C1.82715 0.894531 2.25195 0.608887 2.73535 0.403809C3.2334 0.184082 3.76074 0.0742188 4.31738 0.0742188C4.87402 0.0742188 5.39404 0.184082 5.87744 0.403809C6.37549 0.608887 6.80762 0.894531 7.17383 1.26074C7.54004 1.6123 7.82568 2.03711 8.03076 2.53516C8.25049 3.01855 8.36035 3.53125 8.36035 4.07324ZM7.32764 34H1.28516V10.4673H7.32764V34ZM30.7505 15.1035V21.0801H12.2935V15.1035H30.7505ZM42.6816 8.79736V21.4097H48.9878C49.8521 21.4097 50.665 21.2485 51.4268 20.9263C52.1885 20.5894 52.855 20.1353 53.4263 19.564C53.9976 18.9927 54.4443 18.3262 54.7666 17.5645C55.1035 16.7881 55.272 15.9678 55.272 15.1035C55.272 14.2393 55.1035 13.4263 54.7666 12.6646C54.4443 11.8882 53.9976 11.2144 53.4263 10.6431C52.855 10.0718 52.1885 9.625 51.4268 9.30273C50.665 8.96582 49.8521 8.79736 48.9878 8.79736H42.6816ZM42.6816 34H36.3755V2.49121H48.9878C50.145 2.49121 51.2583 2.64502 52.3276 2.95264C53.397 3.24561 54.3931 3.67041 55.3159 4.22705C56.2534 4.76904 57.103 5.42822 57.8647 6.20459C58.6411 6.96631 59.3003 7.81592 59.8423 8.75342C60.3989 9.69092 60.8237 10.6943 61.1167 11.7637C61.4243 12.833 61.5781 13.9463 61.5781 15.1035C61.5781 16.832 61.2485 18.4653 60.5894 20.0034C59.9302 21.5269 59.0293 22.8599 57.8867 24.0024C56.7441 25.145 55.4038 26.0459 53.8657 26.7051C52.3423 27.3643 50.7163 27.6938 48.9878 27.6938H42.6816V34ZM87.396 22.0249C87.396 23.7827 87.0811 25.4233 86.4512 26.9468C85.8213 28.4556 84.9644 29.7666 83.8804 30.8799C82.7964 31.9785 81.522 32.8501 80.0571 33.4946C78.6069 34.1245 77.0469 34.4395 75.377 34.4395C73.7217 34.4395 72.1616 34.1245 70.6968 33.4946C69.2466 32.8501 67.9722 31.9785 66.8735 30.8799C65.7896 29.7666 64.9326 28.4556 64.3027 26.9468C63.6729 25.4233 63.3579 23.7827 63.3579 22.0249C63.3579 20.2378 63.6729 18.5825 64.3027 17.0591C64.9326 15.5356 65.7896 14.2246 66.8735 13.126C67.9722 12.0127 69.2466 11.1411 70.6968 10.5112C72.1616 9.88135 73.7217 9.56641 75.377 9.56641C77.0469 9.56641 78.6069 9.8667 80.0571 10.4673C81.522 11.0532 82.7964 11.8955 83.8804 12.9941C84.9644 14.0781 85.8213 15.3892 86.4512 16.9272C87.0811 18.4507 87.396 20.1499 87.396 22.0249ZM81.3535 22.0249C81.3535 21.0581 81.1924 20.1865 80.8701 19.4102C80.5625 18.6191 80.1377 17.9453 79.5957 17.3887C79.0537 16.8174 78.4165 16.3853 77.6841 16.0923C76.9663 15.7847 76.1973 15.6309 75.377 15.6309C74.5566 15.6309 73.7803 15.7847 73.0479 16.0923C72.3301 16.3853 71.7002 16.8174 71.1582 17.3887C70.6309 17.9453 70.2134 18.6191 69.9058 19.4102C69.5981 20.1865 69.4443 21.0581 69.4443 22.0249C69.4443 22.9331 69.5981 23.7754 69.9058 24.5518C70.2134 25.3281 70.6309 26.002 71.1582 26.5732C71.7002 27.1445 72.3301 27.5986 73.0479 27.9355C73.7803 28.2578 74.5566 28.4189 75.377 28.4189C76.1973 28.4189 76.9663 28.2651 77.6841 27.9575C78.4165 27.6499 79.0537 27.2178 79.5957 26.6611C80.1377 26.1045 80.5625 25.4307 80.8701 24.6396C81.1924 23.8486 81.3535 22.9771 81.3535 22.0249ZM103.634 34H89.9229V28.0234H103.634C104.044 28.0234 104.396 27.877 104.688 27.584C104.981 27.291 105.128 26.9395 105.128 26.5293C105.128 26.1045 104.981 25.8262 104.688 25.6943C104.396 25.5625 104.044 25.4966 103.634 25.4966H97.3936C96.3535 25.4966 95.3794 25.2988 94.4712 24.9033C93.563 24.5078 92.772 23.9731 92.0981 23.2993C91.4243 22.6108 90.8896 21.8125 90.4941 20.9043C90.1133 19.9961 89.9229 19.022 89.9229 17.9819C89.9229 16.9419 90.1133 15.9678 90.4941 15.0596C90.8896 14.1514 91.4243 13.3604 92.0981 12.6865C92.772 12.0127 93.563 11.4854 94.4712 11.1045C95.3794 10.709 96.3535 10.5112 97.3936 10.5112H109.544V16.4878H97.3936C96.9834 16.4878 96.6318 16.6343 96.3389 16.9272C96.0459 17.2202 95.8994 17.5718 95.8994 17.9819C95.8994 18.4067 96.0459 18.7729 96.3389 19.0806C96.6318 19.3735 96.9834 19.52 97.3936 19.52H103.634C104.659 19.52 105.626 19.6958 106.534 20.0474C107.442 20.3843 108.233 20.8604 108.907 21.4756C109.581 22.0908 110.116 22.8306 110.511 23.6948C110.907 24.5591 111.104 25.5039 111.104 26.5293C111.104 27.5693 110.907 28.5435 110.511 29.4517C110.116 30.3452 109.581 31.1362 108.907 31.8247C108.233 32.4985 107.442 33.0332 106.534 33.4287C105.626 33.8096 104.659 34 103.634 34ZM119.981 42.9648V36.9224L123.321 36.9663C123.907 36.9663 124.471 36.8711 125.013 36.6807C125.555 36.4902 126.053 36.2266 126.507 35.8896C126.976 35.5527 127.386 35.1499 127.738 34.6812C128.089 34.2271 128.375 33.729 128.595 33.187C127.936 33.4653 127.262 33.7437 126.573 34.022C125.899 34.3003 125.218 34.4395 124.53 34.4395C123.08 34.4395 121.717 34.1831 120.443 33.6704C119.168 33.1577 118.048 32.4326 117.081 31.4951C116.129 30.543 115.375 29.3931 114.818 28.0454C114.276 26.6831 114.005 25.1597 114.005 23.4751V10.4673H119.981V23.4751C119.981 24.3101 120.099 25.0425 120.333 25.6724C120.582 26.2876 120.912 26.8076 121.322 27.2324C121.732 27.6426 122.208 27.9502 122.75 28.1553C123.307 28.3604 123.9 28.4629 124.53 28.4629C125.145 28.4629 125.724 28.3237 126.266 28.0454C126.822 27.7524 127.306 27.3716 127.716 26.9028C128.126 26.4341 128.448 25.9067 128.683 25.3208C128.917 24.7202 129.034 24.105 129.034 23.4751V10.4673H135.077V31.0337C135.062 32.689 134.74 34.2417 134.11 35.6919C133.48 37.1421 132.616 38.4092 131.517 39.4932C130.433 40.5771 129.166 41.4341 127.716 42.064C126.266 42.6938 124.713 43.0088 123.058 43.0088L119.981 42.9648ZM162.455 34H161.004L158.675 30.77C158.104 31.2827 157.496 31.7661 156.852 32.2202C156.222 32.6597 155.555 33.0479 154.852 33.3848C154.149 33.707 153.424 33.9634 152.677 34.1538C151.944 34.3442 151.197 34.4395 150.436 34.4395C148.78 34.4395 147.22 34.1611 145.755 33.6045C144.305 33.0479 143.031 32.2422 141.932 31.1875C140.848 30.1182 139.991 28.8145 139.361 27.2764C138.731 25.7383 138.417 23.9878 138.417 22.0249C138.417 20.1938 138.731 18.5166 139.361 16.9932C139.991 15.4551 140.848 14.1367 141.932 13.0381C143.031 11.9395 144.305 11.0898 145.755 10.4893C147.22 9.87402 148.78 9.56641 150.436 9.56641C151.197 9.56641 151.952 9.66162 152.699 9.85205C153.446 10.0425 154.171 10.3062 154.874 10.6431C155.577 10.98 156.244 11.3755 156.874 11.8296C157.518 12.2837 158.119 12.7744 158.675 13.3018L161.004 10.5112H162.455V34ZM156.412 22.0249C156.412 21.2046 156.251 20.4136 155.929 19.6519C155.621 18.8755 155.196 18.1943 154.654 17.6084C154.112 17.0078 153.475 16.5317 152.743 16.1802C152.025 15.814 151.256 15.6309 150.436 15.6309C149.615 15.6309 148.839 15.77 148.106 16.0483C147.389 16.3267 146.759 16.7368 146.217 17.2788C145.689 17.8208 145.272 18.4946 144.964 19.3003C144.657 20.0913 144.503 20.9995 144.503 22.0249C144.503 23.0503 144.657 23.9658 144.964 24.7715C145.272 25.5625 145.689 26.229 146.217 26.771C146.759 27.313 147.389 27.7231 148.106 28.0015C148.839 28.2798 149.615 28.4189 150.436 28.4189C151.256 28.4189 152.025 28.2432 152.743 27.8916C153.475 27.5254 154.112 27.0493 154.654 26.4634C155.196 25.8628 155.621 25.1816 155.929 24.4199C156.251 23.6436 156.412 22.8452 156.412 22.0249ZM173.045 34H167.047V10.4673H168.497L170.475 12.7524C171.441 11.8735 172.533 11.1997 173.749 10.731C174.979 10.2476 176.261 10.0059 177.594 10.0059C179.029 10.0059 180.384 10.2842 181.659 10.8408C182.933 11.3828 184.046 12.1372 184.999 13.104C185.951 14.0562 186.698 15.1768 187.24 16.4658C187.796 17.7402 188.075 19.1025 188.075 20.5527V34H182.076V20.5527C182.076 19.9375 181.959 19.3589 181.725 18.8169C181.49 18.2603 181.168 17.7769 180.758 17.3667C180.348 16.9565 179.872 16.6343 179.33 16.3999C178.788 16.1655 178.209 16.0483 177.594 16.0483C176.964 16.0483 176.371 16.1655 175.814 16.3999C175.257 16.6343 174.774 16.9565 174.364 17.3667C173.954 17.7769 173.631 18.2603 173.397 18.8169C173.163 19.3589 173.045 19.9375 173.045 20.5527V34ZM215.101 34H213.651L211.322 30.77C210.75 31.2827 210.143 31.7661 209.498 32.2202C208.868 32.6597 208.202 33.0479 207.499 33.3848C206.795 33.707 206.07 33.9634 205.323 34.1538C204.591 34.3442 203.844 34.4395 203.082 34.4395C201.427 34.4395 199.867 34.1318 198.402 33.5166C196.952 32.8867 195.677 32.0225 194.579 30.9238C193.495 29.8105 192.638 28.4995 192.008 26.9907C191.378 25.4673 191.063 23.812 191.063 22.0249C191.063 20.2524 191.378 18.6045 192.008 17.0811C192.638 15.5576 193.495 14.2393 194.579 13.126C195.677 12.0127 196.952 11.1411 198.402 10.5112C199.867 9.88135 201.427 9.56641 203.082 9.56641C203.609 9.56641 204.151 9.61035 204.708 9.69824C205.279 9.78613 205.829 9.93262 206.356 10.1377C206.898 10.3281 207.403 10.5845 207.872 10.9067C208.341 11.229 208.736 11.6245 209.059 12.0933V1.10693H215.101V34ZM209.059 22.0249C209.059 21.2046 208.897 20.4136 208.575 19.6519C208.268 18.8755 207.843 18.1943 207.301 17.6084C206.759 17.0078 206.122 16.5317 205.389 16.1802C204.671 15.814 203.902 15.6309 203.082 15.6309C202.262 15.6309 201.485 15.7773 200.753 16.0703C200.035 16.3633 199.405 16.7881 198.863 17.3447C198.336 17.8867 197.918 18.5532 197.611 19.3442C197.303 20.1353 197.149 21.0288 197.149 22.0249C197.149 22.8892 197.303 23.7095 197.611 24.4858C197.918 25.2622 198.336 25.9434 198.863 26.5293C199.405 27.1152 200.035 27.5767 200.753 27.9136C201.485 28.2505 202.262 28.4189 203.082 28.4189C203.902 28.4189 204.671 28.2432 205.389 27.8916C206.122 27.5254 206.759 27.0493 207.301 26.4634C207.843 25.8628 208.268 25.1816 208.575 24.4199C208.897 23.6436 209.059 22.8452 209.059 22.0249ZM236.986 31.2534C236.502 31.6929 235.982 32.1104 235.426 32.5059C234.884 32.8867 234.312 33.2236 233.712 33.5166C233.111 33.7949 232.489 34.0146 231.844 34.1758C231.214 34.3516 230.57 34.4395 229.911 34.4395C228.46 34.4395 227.098 34.1831 225.824 33.6704C224.549 33.1577 223.429 32.4326 222.462 31.4951C221.51 30.543 220.755 29.3931 220.199 28.0454C219.657 26.6831 219.386 25.1597 219.386 23.4751V10.4673H225.362V23.4751C225.362 24.2661 225.479 24.9766 225.714 25.6064C225.963 26.2217 226.292 26.7417 226.703 27.1665C227.113 27.5913 227.589 27.9136 228.131 28.1333C228.688 28.353 229.281 28.4629 229.911 28.4629C230.526 28.4629 231.104 28.3237 231.646 28.0454C232.203 27.7524 232.687 27.3716 233.097 26.9028C233.507 26.4341 233.829 25.9067 234.063 25.3208C234.298 24.7202 234.415 24.105 234.415 23.4751V10.4673H240.414V34H238.963L236.986 31.2534Z" fill="#FF92A4"/>
</svg>
