<svg width="177" height="266" viewBox="0 0 177 266" fill="none" xmlns="http://www.w3.org/2000/svg">
<g clip-path="url(#clip0_8_56)">
<path fill-rule="evenodd" clip-rule="evenodd" d="M30.3934 43.9952C47.0593 75.1143 117.004 57.0877 135.13 102.822C144.381 120.586 155.685 138.349 145.932 156.114C208.498 62.3448 138.445 -21.1485 49.843 15.5961C37.187 21.2829 30.4153 30.5725 30.3934 43.9952Z" fill="white"/>
<path fill-rule="evenodd" clip-rule="evenodd" d="M36.8352 51.0559C51.7786 77.6822 95.0572 60.7693 111.875 95.2675C92.9581 69.1732 41.5181 77.3329 36.8352 51.0559Z" fill="#FF92A4"/>
<path fill-rule="evenodd" clip-rule="evenodd" d="M55.5798 82.0011C60.4466 75.8831 67.2111 73.3809 75.7886 74.328C68.6752 75.8158 61.9633 78.4437 55.5798 82.0011Z" fill="#FF92A4"/>
<path fill-rule="evenodd" clip-rule="evenodd" d="M78.5183 84.2635C72.637 95.4341 63.0961 95.2324 63.1909 89.1056C65.4273 92.6586 70.3218 91.4295 78.5183 84.2635Z" fill="#FF92A4"/>
<path fill-rule="evenodd" clip-rule="evenodd" d="M37.6819 82.7567C58.7635 82.2437 41.0262 117.651 56.3827 113.176C58.2074 112.658 60.5576 113.579 61.8567 111.624C59.5781 112.914 56.9301 111.868 54.4675 111.989C47.7775 112.293 57.3271 78.3428 37.6819 82.7582" fill="#FF92A4"/>
<path fill-rule="evenodd" clip-rule="evenodd" d="M58.546 114.181C61.3896 117.774 58.9869 122.92 63.9296 121.261C63.5427 125.073 65.6097 126.736 70.0882 126.286C72.418 127.714 73.1479 130.318 73.6471 133.091C74.139 130.134 73.5653 127.399 71.1378 125.052C68.2446 125.33 65.9805 124.979 66.6213 121.718C69.6576 121.216 72.5523 120.501 73.8748 117.424C70.9305 119.674 67.7716 120.109 64.5237 119.799C60.8685 120.809 60.54 116.053 58.5475 114.181" fill="#FF92A4"/>
<path fill-rule="evenodd" clip-rule="evenodd" d="M48.6008 93.2169C47.687 97.1017 42.5662 96.6866 39.2044 93.1029C42.2305 94.4373 45.331 94.867 48.6008 93.2169Z" fill="#FF92A4"/>
<path fill-rule="evenodd" clip-rule="evenodd" d="M33.7303 68.7595C34.2018 84.1963 39.508 83.0095 42.3983 90.1345C44.5938 93.5238 46.5586 97.0067 48.1468 100.64C47.6782 96.9892 45.9134 93.0065 43.4931 88.8571C40.2394 82.1589 35.4674 79.3849 33.7318 68.761" fill="#FF92A4"/>
<path fill-rule="evenodd" clip-rule="evenodd" d="M62.7325 125.144C37.0571 135.768 8.47964 145.02 17.6629 172.096C29.1832 210.951 47.1366 240.787 68.3891 266C49.0372 238.111 32.634 207.598 22.0421 171.913C18.8132 159.723 19.981 146.642 62.734 125.144" fill="#FF92A4"/>
<path fill-rule="evenodd" clip-rule="evenodd" d="M34.4471 155.47C37.4877 186.589 64.4726 198.594 81.8888 226.354C72.4618 198.889 42.0494 182.204 34.4471 155.47Z" fill="#FF92A4"/>
<path fill-rule="evenodd" clip-rule="evenodd" d="M48.033 16.3488C101.95 -6.43515 143.497 6.00108 166.272 71.8872C173.53 147.83 125.674 180.979 83.7967 218.772C125.026 180.398 183.035 158.824 176.491 72.618C157.342 -0.125692 101.609 -16.8691 48.033 16.3488Z" fill="#FF92A4"/>
<path fill-rule="evenodd" clip-rule="evenodd" d="M48.0329 16.3488C17.1345 37.8918 10.5014 67.8227 20.4758 103.494C24.9164 139.729 -9.51026 152.395 2.59395 187.533C-4.46246 155.989 30.8152 133.943 24.1252 103.312C15.4937 71.4809 19.6803 41.8468 48.0344 16.3488" fill="#FF92A4"/>
<path fill-rule="evenodd" clip-rule="evenodd" d="M141.354 141.86C140.211 113.312 113.667 109.237 89.351 127.062C88.9423 113.224 77.241 123.817 80.0452 134.369C74.1857 124.753 82.8347 110.494 93.7303 121.581C113.139 99.0324 151.488 115.21 141.354 141.86Z" fill="#FF92A4"/>
<path fill-rule="evenodd" clip-rule="evenodd" d="M104.312 137.569C106.896 139.748 108.299 142.361 107.231 145.882C106.453 142.513 105.448 139.843 104.312 137.569Z" fill="#FF92A4"/>
<path fill-rule="evenodd" clip-rule="evenodd" d="M94.5492 140.857C95.771 149.603 97.8584 153.304 101.028 150.723C98.0438 149.743 96.3009 145.292 94.5492 140.857Z" fill="#FF92A4"/>
<path fill-rule="evenodd" clip-rule="evenodd" d="M114.391 155.563C117.721 154.819 120.185 156.063 122.055 158.669C119.62 157.465 117.07 156.423 114.391 155.563Z" fill="#FF92A4"/>
<path fill-rule="evenodd" clip-rule="evenodd" d="M118.406 164.973C112.555 165.793 109.389 164.195 109.621 159.534C111.779 162.858 114.789 164.511 118.406 164.973Z" fill="#FF92A4"/>
<path fill-rule="evenodd" clip-rule="evenodd" d="M108.461 157.023C105.411 159.612 107.593 166.538 100.934 164.787C99.762 164.072 98.5635 163.568 97.33 163.371C98.3679 163.014 99.5766 162.997 100.979 163.371C105.207 165.228 105.055 158.727 108.461 157.022" fill="#FF92A4"/>
<path fill-rule="evenodd" clip-rule="evenodd" d="M80.0451 134.369C69.3627 142.941 72.7026 159.742 83.6755 167.308C74.7244 156.329 73.1814 145.349 80.0451 134.369Z" fill="#FF92A4"/>
<path fill-rule="evenodd" clip-rule="evenodd" d="M95.8994 167.856C93.9799 166.142 92.2851 164.074 90.7903 161.69C89.9159 161.607 89.1248 161.347 88.373 161.005C88.9452 161.865 89.6707 162.457 90.5174 162.831C91.3932 165.755 93.3215 167.247 95.9009 167.856" fill="#FF92A4"/>
<path fill-rule="evenodd" clip-rule="evenodd" d="M89.2313 165.413C88.7569 166.541 89.0825 167.242 90.3262 167.457C89.7919 166.909 89.4167 166.235 89.2313 165.413Z" fill="#FF92A4"/>
<path fill-rule="evenodd" clip-rule="evenodd" d="M36.8352 51.0559C62.8085 74.233 121.808 49.1808 140.483 100.858C143.436 115.944 161.392 118.993 155.901 138.706C154.365 118.822 135.247 122.423 131.583 106.985C119.768 56.8568 61.9706 74.8746 36.8352 51.0559Z" fill="#FF92A4"/>
<path fill-rule="evenodd" clip-rule="evenodd" d="M115.024 175.762C119.377 165.315 111.003 162.428 97.0497 166.902C83.2741 170.069 69.6795 160.721 53.8047 165.715C69.8926 163.752 82.5136 171.957 96.8672 169.186C107.691 165.266 114.66 166.285 115.024 175.763" fill="#FF92A4"/>
<path fill-rule="evenodd" clip-rule="evenodd" d="M78.2351 129.036C77.5096 132.905 75.301 134.687 72.326 135.388C74.7682 133.903 76.8878 131.984 78.2351 129.036Z" fill="#FF92A4"/>
<path fill-rule="evenodd" clip-rule="evenodd" d="M74.2032 134.093C54.3317 119.244 39.1051 142.69 42.3458 171.93C45.8083 142.748 55.1696 127.223 74.2032 134.093Z" fill="#FF92A4"/>
<path fill-rule="evenodd" clip-rule="evenodd" d="M40.5211 31.7578C77.819 -12.5546 171.841 32.4462 168.249 112.508C155.491 38.1739 77.6088 3.11747 40.5211 31.7578Z" fill="#FF92A4"/>
</g>
<defs>
<clipPath id="clip0_8_56">
<rect width="177" height="266" fill="white"/>
</clipPath>
</defs>
</svg>
