<svg width="84" height="18" viewBox="0 0 84 18" fill="none" xmlns="http://www.w3.org/2000/svg">
<path d="M18.4005 0.248V17H15.0405V6.104L10.5525 17H8.00847L3.49647 6.104V17H0.136469V0.248H3.95247L9.28047 12.704L14.6085 0.248H18.4005ZM31.9944 13.808H25.3224L24.2184 17H20.6904L26.7144 0.223999H30.6264L36.6504 17H33.0984L31.9944 13.808ZM31.0824 11.12L28.6584 4.112L26.2344 11.12H31.0824ZM44.6861 17.168C43.5181 17.168 42.4621 16.968 41.5181 16.568C40.5901 16.168 39.8541 15.592 39.3101 14.84C38.7661 14.088 38.4861 13.2 38.4701 12.176H42.0701C42.1181 12.864 42.3581 13.408 42.7901 13.808C43.2381 14.208 43.8461 14.408 44.6141 14.408C45.3981 14.408 46.0141 14.224 46.4621 13.856C46.9101 13.472 47.1341 12.976 47.1341 12.368C47.1341 11.872 46.9821 11.464 46.6781 11.144C46.3741 10.824 45.9901 10.576 45.5261 10.4C45.0781 10.208 44.4541 10 43.6541 9.776C42.5661 9.456 41.6781 9.144 40.9901 8.84C40.3181 8.52 39.7341 8.048 39.2381 7.424C38.7581 6.784 38.5181 5.936 38.5181 4.88C38.5181 3.888 38.7661 3.024 39.2621 2.288C39.7581 1.552 40.4541 0.991999 41.3501 0.607999C42.2461 0.208 43.2701 0.0079999 44.4221 0.0079999C46.1501 0.0079999 47.5501 0.432 48.6221 1.28C49.7101 2.112 50.3101 3.28 50.4221 4.784H46.7261C46.6941 4.208 46.4461 3.736 45.9821 3.368C45.5341 2.984 44.9341 2.792 44.1821 2.792C43.5261 2.792 42.9981 2.96 42.5981 3.296C42.2141 3.632 42.0221 4.12 42.0221 4.76C42.0221 5.208 42.1661 5.584 42.4541 5.888C42.7581 6.176 43.1261 6.416 43.5581 6.608C44.0061 6.784 44.6301 6.992 45.4301 7.232C46.5181 7.552 47.4061 7.872 48.0941 8.192C48.7821 8.512 49.3741 8.992 49.8701 9.632C50.3661 10.272 50.6141 11.112 50.6141 12.152C50.6141 13.048 50.3821 13.88 49.9181 14.648C49.4541 15.416 48.7741 16.032 47.8781 16.496C46.9821 16.944 45.9181 17.168 44.6861 17.168ZM56.8391 0.248V10.616C56.8391 11.752 57.1351 12.624 57.7271 13.232C58.3191 13.824 59.1511 14.12 60.2231 14.12C61.3111 14.12 62.1511 13.824 62.7431 13.232C63.3351 12.624 63.6311 11.752 63.6311 10.616V0.248H67.0151V10.592C67.0151 12.016 66.7031 13.224 66.0791 14.216C65.4711 15.192 64.6471 15.928 63.6071 16.424C62.5831 16.92 61.4391 17.168 60.1751 17.168C58.9271 17.168 57.7911 16.92 56.7671 16.424C55.7591 15.928 54.9591 15.192 54.3671 14.216C53.7751 13.224 53.4791 12.016 53.4791 10.592V0.248H56.8391ZM79.7175 17L73.6215 9.536V17H70.2615V0.248H73.6215V7.76L79.7175 0.248H83.7735L76.8615 8.552L83.9655 17H79.7175Z" fill="#FF92A4"/>
</svg>
